PathFileType	4	(X/Y/Z)	C:/Users/opensim2020/Desktop/walking_exp_matlab/subject03_walking12_straight_03.trc																																																																																																																																														
DataRate	CameraRate	NumFrames	NumMarkers	Units	OrigDataRate	OrigDataStartFrame	OrigNumFrames																																																																																																																																										
100	100	8	48	mm	100	1797	185																																																																																																																																										
Frame#	Time	LFHD			RFHD			LBHD			RBHD			C7			T10			CLAV			STRN			RBAK			LSHO			LUPA			LELB			LFRM			LWRA			LWRB			LFIN			RSHO			RUPA			RELB			RFRM			RWRA			RWRB			RFIN			LASI			RASI			LPSI			RPSI			LTHI			LKNE			LTIB			LANK			LHEE			LTOE			RTHI			RKNE			RTIB			RANK			RHEE			RTOE			*39			*40			*41			*42			*43			*44			*45			*46			*47		
		X1	Y1	Z1	X2	Y2	Z2	X3	Y3	Z3	X4	Y4	Z4	X5	Y5	Z5	X6	Y6	Z6	X7	Y7	Z7	X8	Y8	Z8	X9	Y9	Z9	X10	Y10	Z10	X11	Y11	Z11	X12	Y12	Z12	X13	Y13	Z13	X14	Y14	Z14	X15	Y15	Z15	X16	Y16	Z16	X17	Y17	Z17	X18	Y18	Z18	X19	Y19	Z19	X20	Y20	Z20	X21	Y21	Z21	X22	Y22	Z22	X23	Y23	Z23	X24	Y24	Z24	X25	Y25	Z25	X26	Y26	Z26	X27	Y27	Z27	X28	Y28	Z28	X29	Y29	Z29	X30	Y30	Z30	X31	Y31	Z31	X32	Y32	Z32	X33	Y33	Z33	X34	Y34	Z34	X35	Y35	Z35	X36	Y36	Z36	X37	Y37	Z37	X38	Y38	Z38	X39	Y39	Z39	X40	Y40	Z40	X41	Y41	Z41	X42	Y42	Z42	X43	Y43	Z43	X44	Y44	Z44	X45	Y45	Z45	X46	Y46	Z46	X47	Y47	Z47	X48	Y48	Z48
																																																																																																																																																	
139	1.38	668.9245	1598.65198	-1017.7348	631.82452	1592.37561	-890.17847	545.9635	1554.68542	-1052.18176	514.40466	1547.94006	-925.5437	507.57852	1380.84534	-999.38879	502.00638	1065.05078	-1001.37872	634.09949	1314.84351	-986.73248	695.65051	1155.85986	-994.50043	462.33832	1195.44336	-917.68848	594.91693	1352.43787	-1143.97998	649.91803	1175.24341	-1226.07288	710.63513	1071.79626	-1238.21948	817.75183	1013.06934	-1211.44922	911.64117	967.1051	-1153.52539	906.86462	941.8067	-1201.87207	983.20105	926.18494	-1175.94629	566.56891	1331.22473	-831.98151	530.27356	1109.6532	-772.37793	521.89923	995.98669	-762.56146	500.57294	860.078	-761.62177	507.62677	757.69873	-794.01074	469.21722	763.91547	-755.24713	461.89536	687.50458	-770.7467	667.51508	905.29529	-1118.1355	678.74225	919.89526	-879.96411	508.2312	925.96906	-1059.17493	514.4101	938.07288	-911.83942	577.97992	607.00256	-1169.02612	548.35284	428.72949	-1152.18005	383.38837	311.79822	-1144.19116	229.84485	174.18974	-1102.48474	188.21581	192.80917	-1060.26648	264.02933	29.04934	-1072.20532	710.20087	634.79816	-834.49951	791.75214	478.01608	-882.80267	776.95923	282.50305	-875.86902	758.60107	68.54198	-919.98486	708.32477	37.13074	-968.35742	895.22839	33.35354	-940.35333	573.95129	1654.33154	-987.30737	NaN	NaN	NaN	NaN	NaN	NaN	NaN	NaN	NaN	NaN	NaN	NaN	NaN	NaN	NaN	NaN	NaN	NaN	NaN	NaN	NaN	NaN	NaN	NaN
140	1.39	682.65637	1599.49524	-1016.30518	645.65155	1593.15723	-888.68573	559.4975	1556.01257	-1050.72192	528.00537	1549.19946	-924.07361	520.52417	1381.45642	-997.60681	516.14197	1065.90088	-1000.26959	647.50812	1316.04761	-985.70868	709.43811	1157.21814	-993.89514	476.58347	1196.23096	-915.96429	607.13501	1353.75378	-1142.54211	661.8537	1176.36255	-1224.67078	720.79883	1071.97583	-1236.51538	827.34247	1011.88562	-1210.86621	921.28638	965.59186	-1153.83069	915.74963	939.55127	-1201.45251	992.17535	924.03351	-1176.44409	580.75226	1332.49768	-830.61444	545.50159	1110.81738	-770.72784	537.93811	997.15033	-760.60785	517.75629	861.24384	-759.05359	525.82861	758.67505	-790.92413	487.03601	764.74573	-752.74066	479.76456	688.41211	-767.73779	681.18134	905.64368	-1117.21082	693.11664	922.05585	-878.95831	522.06781	926.03125	-1058.30359	528.75403	939.9248	-911.07831	598.04437	604.67499	-1168.28735	574.11505	426.10242	-1152.07874	407.90735	313.43341	-1143.64563	251.24722	180.16388	-1103.15491	211.48004	204.54446	-1061.62	271.80182	33.85104	-1070.2406	722.93854	636.4317	-832.64453	800.73218	477.59253	-881.63928	780.86682	282.25476	-874.6886	758.32501	68.6103	-919.7973	707.88776	37.10839	-968.07281	895.18616	33.19104	-940.35577	587.90424	1655.5094	-985.78125	NaN	NaN	NaN	NaN	NaN	NaN	NaN	NaN	NaN	NaN	NaN	NaN	NaN	NaN	NaN	NaN	NaN	NaN	NaN	NaN	NaN	NaN	NaN	NaN
141	1.4	696.38702	1600.6449	-1014.91461	659.42572	1594.21948	-887.28119	572.98834	1557.68127	-1049.27844	541.57263	1550.78479	-922.63477	533.39868	1382.51025	-995.90973	529.93512	1067.03259	-999.10706	660.76794	1317.50049	-984.86298	722.99512	1158.84387	-993.59723	490.7045	1197.30701	-914.04663	619.15851	1355.28198	-1141.28406	673.31525	1177.29138	-1222.70459	730.80902	1072.24805	-1234.87634	836.65637	1010.53009	-1210.39368	930.61804	963.55414	-1154.04956	924.05945	936.93768	-1201.29102	1000.61298	920.70929	-1177.12097	594.94794	1333.80908	-829.35114	560.91302	1112.15271	-768.95972	554.18738	998.43927	-758.4588	535.28473	862.26453	-756.68268	544.55725	759.76416	-787.95227	505.46625	765.58374	-750.13531	498.80591	689.12097	-765.0827	694.6344	906.32562	-1116.27722	707.16992	924.10699	-878.19818	535.47443	926.3476	-1057.59021	542.57117	942.0282	-910.44257	617.8551	602.99536	-1167.5509	600.21844	423.83765	-1151.80103	433.8598	314.01764	-1144.14929	273.57349	186.82825	-1102.55408	236.29985	215.52573	-1061.97778	283.71613	39.88746	-1069.61157	733.32977	637.43793	-831.05347	808.25488	476.92505	-880.13239	783.67023	281.80923	-873.68439	758.00995	68.66978	-919.71771	707.93317	37.18968	-967.82135	895.11371	33.00055	-940.12775	601.89441	1656.94507	-984.17859	NaN	NaN	NaN	NaN	NaN	NaN	NaN	NaN	NaN	NaN	NaN	NaN	NaN	NaN	NaN	NaN	NaN	NaN	NaN	NaN	NaN	NaN	NaN	NaN
142	1.41	710.05878	1602.0033	-1013.53931	673.18842	1595.50281	-885.87878	586.47107	1559.69775	-1047.89978	555.11749	1552.72119	-921.25098	546.30115	1383.94543	-994.20001	543.67816	1068.64893	-997.89172	673.86462	1319.24207	-984.15906	736.36487	1160.6178	-993.42218	504.7832	1198.71863	-911.95557	631.04419	1356.99341	-1140.23438	684.70123	1178.37183	-1221.18909	740.64044	1072.59619	-1233.349	845.65308	1009.02179	-1209.84021	939.53839	960.94379	-1154.27832	931.86749	934.02167	-1201.09229	1008.28339	916.13232	-1177.85034	609.27515	1335.35339	-828.18927	576.68585	1113.70056	-767.13641	570.66321	999.87189	-756.14252	553.48621	863.47888	-754.12616	564.04773	761.07611	-785.09204	524.70032	766.4245	-747.43658	518.76294	689.88184	-762.36188	707.65302	907.28992	-1115.68127	721.0025	926.07233	-877.62256	548.69568	926.98419	-1056.93433	556.21631	944.39307	-909.8197	637.24805	602.50415	-1166.90405	626.60046	422.70572	-1151.82092	460.65036	313.91928	-1144.92944	296.24881	193.77933	-1100.44348	260.23615	223.70537	-1058.9292	302.181	46.30154	-1071.03687	742.30414	637.86279	-829.828	814.17285	475.80292	-878.2757	786.18024	281.23965	-872.27148	757.79437	68.64549	-919.61029	707.83887	37.27791	-967.69214	895.08264	32.89793	-940.08868	615.92603	1658.66406	-982.59985	NaN	NaN	NaN	NaN	NaN	NaN	NaN	NaN	NaN	NaN	NaN	NaN	NaN	NaN	NaN	NaN	NaN	NaN	NaN	NaN	NaN	NaN	NaN	NaN
143	1.42	723.75861	1603.52832	-1012.2226	686.94739	1596.96875	-884.54834	599.94	1561.93359	-1046.57251	568.73425	1554.80676	-919.89325	559.14185	1385.85876	-992.52069	557.10248	1070.46252	-996.85577	686.80579	1321.1499	-983.59149	749.64099	1162.59595	-993.41681	518.448	1200.0813	-909.83649	642.82184	1358.93469	-1139.36072	695.40863	1179.44995	-1219.43225	750.18396	1073.01196	-1231.96106	854.35297	1007.50049	-1209.28687	947.94781	957.65289	-1154.62061	938.96448	930.62885	-1201.29395	1015.12622	910.53894	-1178.62708	623.50616	1337.04602	-827.15204	592.3623	1115.16406	-765.2652	587.48926	1001.44702	-753.81635	571.89911	864.74939	-751.63434	584.09906	762.51678	-782.29529	544.70349	767.37012	-744.72028	539.73456	690.74164	-759.83887	720.15369	908.50867	-1115.44849	734.51147	928.00153	-877.16876	561.72119	927.8219	-1056.1886	569.82306	947.02985	-909.14417	656.01398	603.2262	-1166.1626	652.59729	422.63464	-1151.71252	487.22101	314.77573	-1144.7146	319.5087	200.29454	-1097.62158	283.06158	228.81934	-1054.64417	327.57944	51.49711	-1072.85254	750.48694	638.0564	-828.73578	818.98315	474.58792	-876.20081	788.40936	280.62933	-870.98547	757.57764	68.6029	-919.39331	707.7782	37.40812	-967.51392	895.04572	32.77482	-939.8161	629.9422	1660.59375	-980.97223	NaN	NaN	NaN	NaN	NaN	NaN	NaN	NaN	NaN	NaN	NaN	NaN	NaN	NaN	NaN	NaN	NaN	NaN	NaN	NaN	NaN	NaN	NaN	NaN
144	1.43	737.37781	1605.2644	-1010.89111	700.61194	1598.56628	-883.26923	613.32922	1564.31201	-1045.27686	582.10193	1557.09949	-918.58673	572.16333	1387.9574	-991.08386	570.41223	1072.44702	-995.99695	699.69678	1323.23633	-983.1402	762.74194	1164.75171	-993.58167	532.00885	1201.83057	-907.62512	654.59851	1361.17102	-1138.70215	705.71967	1180.57202	-1218.15198	759.39185	1073.34058	-1230.67932	862.67914	1005.87891	-1208.82654	955.92975	953.88013	-1154.8125	945.72986	927.18439	-1201.69739	1021.40472	904.27399	-1179.50574	637.67944	1338.89087	-826.25165	608.51184	1116.83875	-763.44006	604.50806	1003.23267	-751.39777	591.13989	866.21649	-749.01489	604.70465	764.2168	-779.67139	565.48737	768.49457	-741.94086	561.88812	691.70825	-756.8974	732.54877	910.22131	-1115.20337	747.72223	929.91467	-876.69586	574.56201	929.27014	-1055.32422	582.78345	949.71985	-908.28448	674.56531	604.82642	-1165.39136	678.539	424.06149	-1151.69385	513.22064	317.45367	-1142.8573	344.35428	205.3282	-1094.48901	306.23642	231.38586	-1050.78247	357.81674	56.19404	-1074.17834	758.35706	638.52161	-827.81122	823.31573	473.62341	-874.79034	790.50397	280.1489	-870.12659	757.46027	68.66859	-919.23792	707.76361	37.62008	-967.43073	894.99701	32.66782	-939.62695	643.94659	1662.7041	-979.4549	NaN	NaN	NaN	NaN	NaN	NaN	NaN	NaN	NaN	NaN	NaN	NaN	NaN	NaN	NaN	NaN	NaN	NaN	NaN	NaN	NaN	NaN	NaN	NaN
145	1.44	750.99988	1607.19507	-1009.58191	714.27368	1600.32202	-881.96906	626.73486	1566.98132	-1044.03064	595.55334	1559.57239	-917.34662	584.91614	1390.4043	-989.59729	583.55676	1074.52344	-995.18701	712.44934	1325.50171	-982.79126	775.68317	1167.07483	-993.69427	545.3772	1203.81567	-905.56091	666.30243	1363.40588	-1138.08594	715.84344	1181.84216	-1217.40271	768.47601	1073.82593	-1229.56531	870.69971	1004.07953	-1208.39282	963.0932	949.37732	-1155.26331	952.09894	923.61633	-1202.31616	1026.81714	897.33447	-1180.474	651.92578	1340.7854	-825.52612	624.92639	1118.59241	-761.65265	622.18988	1004.95728	-749.34979	610.89087	867.90955	-746.52655	625.83868	766.14624	-777.13074	586.90778	769.66638	-739.11163	585.0426	692.88464	-753.91675	745.02429	912.25439	-1114.75574	760.59375	931.77856	-876.09857	587.40936	931.24817	-1054.3739	595.64667	952.47083	-907.30389	693.37561	606.99188	-1164.62024	704.08649	426.71194	-1151.4696	538.82544	321.26257	-1140.58386	370.15341	208.96819	-1090.94263	330.3522	231.65643	-1047.23767	391.29074	59.30576	-1074.54944	765.99908	639.18878	-827.01434	827.43665	472.92075	-873.49402	792.27637	279.91815	-869.36377	757.2951	68.76449	-919.08813	707.73749	37.81358	-967.3869	894.95197	32.60751	-939.34326	657.89142	1665.01514	-977.909	NaN	NaN	NaN	NaN	NaN	NaN	NaN	NaN	NaN	NaN	NaN	NaN	NaN	NaN	NaN	NaN	NaN	NaN	NaN	NaN	NaN	NaN	NaN	NaN
146	1.45	764.62823	1609.31006	-1008.27087	727.79767	1602.19836	-880.65051	640.17352	1569.77649	-1042.85645	609.04492	1562.17432	-916.17249	597.81665	1392.7804	-988.58075	596.47266	1076.85925	-994.23376	725.13965	1327.91589	-982.43359	788.49365	1169.55212	-993.73706	558.49982	1206.08557	-903.81396	678.12347	1365.85266	-1137.71667	725.45557	1183.10486	-1216.89233	777.46124	1074.37512	-1228.65662	878.28198	1002.00787	-1208.07507	969.69995	944.31421	-1155.78027	957.51715	919.40985	-1203.07532	1031.43787	890.02014	-1181.57202	665.69287	1342.96973	-824.77063	641.53174	1120.44995	-759.94055	640.10199	1006.98431	-747.15125	631.09784	869.85364	-743.95013	647.45758	768.32861	-774.74255	608.93921	771.09003	-736.31952	608.88422	694.34528	-750.42474	757.89441	914.95929	-1113.8009	773.22858	933.62708	-875.34039	600.18414	933.70471	-1053.47961	608.28149	955.01379	-906.36108	712.56372	609.58405	-1163.76038	729.4151	430.02457	-1151.05847	564.78723	324.82758	-1138.49976	397.34903	210.56688	-1087.85303	355.92963	229.83458	-1044.30884	426.27133	61.06922	-1073.77075	773.70685	640.07745	-826.22046	831.36572	472.46738	-872.81055	793.75812	279.8718	-868.85529	757.17169	68.86357	-918.94476	707.68658	37.99967	-967.3385	894.9021	32.56816	-939.22772	671.79956	1667.4696	-976.38885	NaN	NaN	NaN	NaN	NaN	NaN	NaN	NaN	NaN	NaN	NaN	NaN	NaN	NaN	NaN	NaN	NaN	NaN	NaN	NaN	NaN	NaN	NaN	NaN
